<svg width="23" height="23" viewBox="0 0 23 23" fill="none" xmlns="http://www.w3.org/2000/svg">
<path d="M21.1632 8.40535L11.5041 1.11743L1.83604 8.40535C1.63617 8.58979 1.51599 8.84481 1.50098 9.11637V20.2455C1.50168 20.4759 1.59348 20.6965 1.75634 20.8594C1.9192 21.0223 2.13988 21.1141 2.37019 21.1148H8.16675V16.4514C8.16675 15.5675 8.5179 14.7197 9.14294 14.0947C9.76797 13.4696 10.6157 13.1185 11.4996 13.1185C12.3836 13.1185 13.2313 13.4696 13.8564 14.0947C14.4814 14.7197 14.8325 15.5675 14.8325 16.4514V21.1174H20.6282C20.8586 21.1167 21.0794 21.025 21.2424 20.8621C21.4054 20.6993 21.4974 20.4786 21.4983 20.2482V9.11637C21.4829 8.84491 21.3628 8.59001 21.1632 8.40535Z" fill="#B0413D" stroke="#B0413D" stroke-width="2" stroke-linecap="round" stroke-linejoin="round"/>
</svg>
