<svg width="22" height="22" viewBox="0 0 22 22" fill="none" xmlns="http://www.w3.org/2000/svg">
<path d="M20.6632 8.40535L11.0041 1.11743L1.33604 8.40535C1.13617 8.58979 1.01599 8.84481 1.00098 9.11637V20.2455C1.00168 20.4759 1.09348 20.6965 1.25634 20.8594C1.4192 21.0223 1.63988 21.1141 1.87019 21.1148H7.66675V16.4514C7.66675 15.5675 8.0179 14.7197 8.64294 14.0947C9.26797 13.4696 10.1157 13.1185 10.9996 13.1185C11.8836 13.1185 12.7313 13.4696 13.3564 14.0947C13.9814 14.7197 14.3325 15.5675 14.3325 16.4514V21.1174H20.1282C20.3586 21.1167 20.5794 21.025 20.7424 20.8621C20.9054 20.6993 20.9974 20.4786 20.9983 20.2482V9.11637C20.9829 8.84491 20.8628 8.59001 20.6632 8.40535Z" stroke="white" stroke-linecap="round" stroke-linejoin="round"/>
</svg>
