<svg width="18" height="22" viewBox="0 0 18 22" fill="none" xmlns="http://www.w3.org/2000/svg">
<path d="M7.22266 19.6674C7.33556 20.052 7.57001 20.3897 7.89091 20.6299C8.2118 20.8702 8.60187 21 9.00272 21C9.40358 21 9.79365 20.8702 10.1145 20.6299C10.4354 20.3897 10.6699 20.052 10.7828 19.6674" stroke="white" stroke-width="2" stroke-linecap="round" stroke-linejoin="round"/>
<path d="M9 3.00008V1" stroke="white" stroke-width="2" stroke-linecap="round" stroke-linejoin="round"/>
<path d="M9.0003 3.00012C10.7685 3.00012 12.4642 3.70253 13.7145 4.95282C14.9648 6.20311 15.6672 7.89886 15.6672 9.66704C15.6672 15.9304 17.0006 17.0006 17.0006 17.0006H1C1 17.0006 2.33338 15.2975 2.33338 9.66704C2.33338 7.89886 3.03579 6.20311 4.28608 4.95282C5.53637 3.70253 7.23212 3.00012 9.0003 3.00012V3.00012Z" stroke="white" stroke-width="2" stroke-linecap="round" stroke-linejoin="round"/>
</svg>
